<?xml version="1.0" encoding="UTF-8"?>
<!DOCTYPE svg PUBLIC "-//W3C//DTD SVG 1.1//EN" "http://www.w3.org/Graphics/SVG/1.1/DTD/svg11.dtd">
<!-- Creator: CorelDRAW -->
<svg xmlns="http://www.w3.org/2000/svg" xml:space="preserve" width="210mm" height="285mm"
    version="1.1"
    style="shape-rendering:geometricPrecision; text-rendering:geometricPrecision; image-rendering:optimizeQuality; fill-rule:evenodd; clip-rule:evenodd"
    viewBox="0 0 21000 28500"
    xmlns:xlink="http://www.w3.org/1999/xlink"
    xmlns:xodm="http://www.corel.com/coreldraw/odm/2003">
 <defs>
  <style type="text/css">
   <![CDATA[
    .str1 {stroke:#2B2A29;stroke-width:20;stroke-miterlimit:22.9256}
    .str0 {stroke:#380500;stroke-width:20;stroke-miterlimit:22.9256}
    .fil4 {fill:none}
    .fil0 {fill:#380500}
    .fil3 {fill:#480D00}
    .fil1 {fill:#ED9106}
    .fil2 {fill:#FB9501}
   ]]>
  </style>
 </defs>
 <g id="Layer_x0020_1">
  <metadata id="CorelCorpID_0Corel-Layer"/>
  <g id="_1384244460752">
   <path class="fil0" d="M13734.78 7782.81l1742.28 72.67 -266.23 6388.23 -1683.48 -74.94 207.43 -6385.96zm-8603.87 6169.36c36.18,-781.12 1066.75,-3268.32 1480.05,-4364.53 1816.43,-4817.84 789.49,-4036.71 3602.56,-3890.71l2659.09 8496.19 -1870.87 -239.99 -695.36 -1757.77 -2782.17 -46.71 -837.06 1921.73 -1556.24 -118.21zm10267.16 -8593.41c521.46,1929.65 -863.26,2202.74 -1540.37,1475.35 -721.55,-775.22 -212.66,-1977.57 1540.37,-1475.35zm-14028.83 -1907.36l-413.6 18856.63c-44.47,2030.03 533.03,2370.63 2535.48,2414.5l15388.74 240.32c734.75,-781.55 890.41,-863.35 920.65,-2241.34l330.99 -15085.27c49.76,-2267.79 -1021.04,-2649.72 -2126.92,-3788.89 -956.94,-985.88 -1795.19,-2428.49 -3688.03,-2470.02l-12057.88 -135.08c-586.84,643.9 -860.18,876.06 -889.43,2209.15z"/>
   <path class="fil1" d="M1369.25 3451.39c29.23,-1333.08 302.57,-1565.24 889.41,-2209.14l12057.89 135.09c1892.85,41.52 2731.08,1484.13 3688.03,2470 1105.89,1139.17 2176.67,1521.11 2126.91,3788.9l-330.98 15085.26c-30.25,1378 -185.9,1459.8 -920.65,2241.36l-15388.74 -240.34c-2002.46,-43.86 -2579.96,-384.46 -2535.48,-2414.49l413.61 -18856.64zm19623.62 3015.99l0 3523.57 -285.28 13002.02c-46.92,2138.64 -1046.2,2982.21 -3156.56,2935.89l-14331.03 -314.43c-2222.18,-48.75 -3261.46,-781.52 -3211.13,-3075.6l419.27 -19108.07c52.9,-2411.68 918.82,-3276.42 3349.32,-3223.1l10559.69 231.7c2380.17,52.22 3177.24,1414.65 4239.6,2613.67 1070.29,1207.96 2156.62,1770.68 2416.12,3414.35z"/>
   <path class="fil2" d="M8995.57 7643.25l961.64 2785.9 -1876.02 6.12 914.38 -2792.02zm-3864.66 6308.89l1556.27 118.23 837.01 -1921.72 2782.19 46.75 695.34 1757.73 1870.92 240.02 -1408.27 -4499.55c-104.06,28.36 -252.03,21.94 -330.58,11.75l-50.53 56.15c-150.99,171.26 -166.65,165.88 -253.12,367.58 67.22,134.46 55.77,278.97 132.37,422.27 73.38,137.21 152.4,139.13 65.9,396.57 -51.82,154.19 -261.95,281.39 -293.66,352.52 -18.77,42.17 -26.36,256.04 -267.82,280.48 -150.48,15.22 -377.38,173.35 -558.4,-25.58 -171.2,-188.17 -202.73,-244.77 -318.15,-435.78 -215.18,-356.16 188.14,-635.45 434.64,-432.19l303.77 172.89 79.38 -83.17 -103.91 -300.9c-29.65,-96.09 -164.17,-163.69 -94.33,-390.05 65.52,-212.44 125.89,-373.53 269.01,-539.22 -479.2,-191.7 -370.59,-133.06 -786.02,-518.72 -186.07,-172.71 -270.98,-355.26 -306.76,-600.27 -16.34,-111.87 41.1,-342.69 117.46,-430.67 -218.62,0 -317.49,-154.34 -415.13,-328.16 -116.08,-206.58 -109.62,-297.05 -106.75,-525.02 1.61,-130.61 187.89,-664.09 242.23,-810.35 138.85,-373.59 154.21,-432.58 403.53,-679.15 -2085.32,-190.92 -1340.42,-512.68 -3016.53,3933.04 -413.31,1096.22 -1443.87,3583.4 -1480.06,4364.52zm6095.32 -5019.49l-1012.71 -3235.72 -78.96 -4.45c90.14,152.03 8.22,292.68 -112.05,412.94l-91.36 98.78c-74.99,56.01 -315.43,831.72 -349.05,966.42l168.59 -3.53c315.85,48.06 840.12,646.6 1100.43,825.98 144,99.2 190.53,319.64 84.2,461.99 -221.05,296 -457.39,180.61 -699.83,18.98l-176.1 64.68 360.68 340.8 503.38 188.25c106.79,-83.62 206.16,-130.39 302.78,-135.12z"/>
   <polygon class="fil2" points="13527.34,14168.79 15210.8,14243.72 15477.03,7855.47 14353.62,7808.61 14338.82,7826.66 13980.99,8454.58 13696.32,8966.49 "/>
   <polygon class="fil3" points="8081.18,10435.25 9957.24,10429.14 8995.59,7643.25 "/>
   <circle class="fil0 str0" cx="14595.76" cy="6087.82" r="1172.82"/>
   <ellipse class="fil4 str1" transform="matrix(0.172166 2.98372 -2.98372 0.172166 17707.9 6477.6)" rx="355.15" ry="347.25"/>
  </g>
 </g>
</svg>